# xmcd CD database file
# Copyright (C) 1993-1997  Ti Kan
#
# Track frame offsets:
#	150
#	16541
#	38853
#	50290
#	68515
#	82495
#	103825
#	117083
#	133455
#	156770
#	176824
#	188795
#	203225
#	216585
#	227280
#
# Disc length: 3306 seconds
#
# Revision: 2
# Processed by: cddbd v1.4b41PL1 Copyright (c) Steve Scherf et al.
# Submitted via: xmcd 2.2 PL0
#
DISCID=d20ce80f
DTITLE=The Blues Brothers Souvenir Show (A tribute to The Blues Brother
DTITLE=s) - Live on a mission
DYEAR=1900
DGENRE=
TTITLE0=Going back to Miami
TTITLE1=Big fine hunk of woman
TTITLE2=Let the good times roll
TTITLE3="B" movie box car blues
TTITLE4=Messin' with the kid
TTITLE5=Rockin' at midnight
TTITLE6=Baby's got me crying
TTITLE7=Fanny Mae
TTITLE8=Chauffeur
TTITLE9=Rock steady
TTITLE10=Theme from "Rawhide"
TTITLE11=Do you love me
TTITLE12=Rollin' man
TTITLE13=Deep in the heart of Texas
TTITLE14=Everybody needs somebody to love
EXTD=
EXTT0=
EXTT1=
EXTT2=
EXTT3=
EXTT4=
EXTT5=
EXTT6=
EXTT7=
EXTT8=
EXTT9=
EXTT10=
EXTT11=
EXTT12=
EXTT13=
EXTT14=
PLAYORDER=
